<svg width="153.332" height="27.72" viewBox="0 0 153.332 27.72" xmlns="http://www.w3.org/2000/svg"><g id="svgGroup" stroke-linecap="round" fill-rule="evenodd" font-size="9pt" stroke="#000" stroke-width="0.25mm" fill="black" style="stroke:#000;stroke-width:0.25mm;fill:black"><path d="M 3.42 27.288 L 0 27.288 L 9.432 1.116 L 12.78 1.116 L 22.212 27.288 L 18.54 27.288 L 11.232 6.192 L 10.98 5.148 L 10.728 6.192 L 6.696 17.748 L 6.3 18.504 L 6.732 18.432 L 11.592 18.432 Q 12.4 18.432 12.964 18.747 A 2.1 2.1 0 0 1 13.041 18.792 Q 13.626 19.152 14.013 19.746 Q 14.4 20.34 14.652 21.024 L 5.58 21.024 L 3.42 27.288 Z M 152.892 18.288 L 142.452 18.288 A 5.029 5.029 0 0 1 143.012 17.187 A 4.292 4.292 0 0 1 143.523 16.569 A 2.235 2.235 0 0 1 144.493 16.009 Q 144.846 15.905 145.269 15.882 A 4.536 4.536 0 0 1 145.512 15.876 L 150.084 15.876 Q 150.212 14.781 149.941 13.849 A 4.343 4.343 0 0 0 149.769 13.365 A 4.311 4.311 0 0 0 148.955 12.093 A 3.988 3.988 0 0 0 148.365 11.574 Q 147.438 10.908 146.268 10.908 A 4.782 4.782 0 0 0 144.64 11.179 A 4.352 4.352 0 0 0 143.604 11.718 Q 142.452 12.528 141.804 14.085 A 7.897 7.897 0 0 0 141.339 15.689 Q 141.156 16.68 141.156 17.856 A 10.428 10.428 0 0 0 141.32 19.749 A 7.842 7.842 0 0 0 141.903 21.618 A 6.787 6.787 0 0 0 142.848 23.134 A 5.657 5.657 0 0 0 143.946 24.147 Q 145.242 25.056 146.88 25.056 Q 148.122 25.056 149.238 24.795 Q 150.048 24.606 151.076 24.146 A 18.73 18.73 0 0 0 151.884 23.76 L 152.784 26.136 A 14.326 14.326 0 0 1 150.978 26.913 A 11.222 11.222 0 0 1 149.436 27.333 Q 147.958 27.62 146.75 27.646 A 11.022 11.022 0 0 1 146.52 27.648 A 9.175 9.175 0 0 1 144.306 27.39 A 7.81 7.81 0 0 1 142.929 26.91 Q 141.318 26.172 140.175 24.849 A 9.14 9.14 0 0 1 138.603 22.229 A 10.641 10.641 0 0 1 138.42 21.735 Q 137.808 19.944 137.808 17.82 A 13.404 13.404 0 0 1 138.013 15.418 A 9.765 9.765 0 0 1 138.879 12.771 Q 139.95 10.638 141.93 9.477 A 8.333 8.333 0 0 1 144.808 8.459 A 11.106 11.106 0 0 1 146.628 8.316 A 7.134 7.134 0 0 1 148.451 8.54 A 5.917 5.917 0 0 1 149.904 9.135 Q 151.326 9.954 152.199 11.367 A 7.545 7.545 0 0 1 153.208 14.075 A 8.914 8.914 0 0 1 153.279 14.571 Q 153.448 16.03 153.085 17.579 A 10.663 10.663 0 0 1 152.892 18.288 Z M 63.756 1.872 L 62.82 4.212 A 21.371 21.371 0 0 0 61.362 3.78 Q 60.641 3.596 59.982 3.49 A 13.05 13.05 0 0 0 59.94 3.483 A 16.642 16.642 0 0 0 57.715 3.28 A 15.08 15.08 0 0 0 57.384 3.276 Q 55.53 3.276 53.838 3.96 Q 52.146 4.644 50.841 6.012 A 9.027 9.027 0 0 0 49.366 8.102 A 11.515 11.515 0 0 0 48.78 9.441 A 11.845 11.845 0 0 0 48.201 11.751 Q 48.024 12.922 48.024 14.256 A 13.714 13.714 0 0 0 48.263 16.868 A 11.185 11.185 0 0 0 48.78 18.702 Q 49.536 20.7 50.841 22.14 Q 52.146 23.58 53.838 24.354 Q 55.53 25.128 57.384 25.128 A 10.611 10.611 0 0 0 59.147 24.975 A 12.735 12.735 0 0 0 59.985 24.804 A 11.377 11.377 0 0 0 61.551 24.303 A 14.756 14.756 0 0 0 62.82 23.724 L 63.756 26.064 A 15.687 15.687 0 0 1 61.898 26.9 A 12.648 12.648 0 0 1 60.489 27.333 A 13.535 13.535 0 0 1 58.145 27.696 A 12.075 12.075 0 0 1 57.384 27.72 A 14.389 14.389 0 0 1 53.262 27.146 A 12.687 12.687 0 0 1 50.742 26.091 Q 47.79 24.462 46.071 21.438 A 12.921 12.921 0 0 1 44.594 17.215 A 17.379 17.379 0 0 1 44.352 14.256 A 16.023 16.023 0 0 1 44.7 10.857 A 13.436 13.436 0 0 1 45.342 8.739 A 13.005 13.005 0 0 1 47.833 4.716 A 12.468 12.468 0 0 1 48.105 4.428 Q 49.878 2.61 52.245 1.629 A 13.061 13.061 0 0 1 56.655 0.665 A 15.229 15.229 0 0 1 57.384 0.648 Q 58.896 0.648 60.507 0.945 A 18.039 18.039 0 0 1 63.347 1.72 A 20.146 20.146 0 0 1 63.756 1.872 Z M 122.112 26.136 L 122.976 23.76 A 13.443 13.443 0 0 0 125.142 24.586 A 12.032 12.032 0 0 0 125.748 24.741 Q 127.087 25.045 128.19 25.056 A 8.261 8.261 0 0 0 128.268 25.056 A 5.527 5.527 0 0 0 129.157 24.989 Q 129.625 24.913 129.997 24.749 A 2.356 2.356 0 0 0 130.68 24.3 A 2.526 2.526 0 0 0 131.466 22.557 A 3.404 3.404 0 0 0 131.472 22.356 A 2.556 2.556 0 0 0 131.351 21.555 A 2.148 2.148 0 0 0 130.842 20.718 A 5.264 5.264 0 0 0 130.071 20.07 A 7.216 7.216 0 0 0 129.222 19.566 A 56.117 56.117 0 0 0 127.734 18.837 A 65.157 65.157 0 0 0 127.116 18.549 Q 126 18.036 125.01 17.361 Q 124.02 16.686 123.39 15.678 A 3.992 3.992 0 0 1 122.881 14.39 Q 122.768 13.867 122.761 13.262 A 6.988 6.988 0 0 1 122.76 13.176 Q 122.76 12.024 123.417 10.917 A 4.816 4.816 0 0 1 124.652 9.547 A 6.171 6.171 0 0 1 125.361 9.081 A 5.365 5.365 0 0 1 126.894 8.512 Q 127.549 8.372 128.303 8.355 A 9.355 9.355 0 0 1 128.52 8.352 Q 129.546 8.352 130.779 8.55 A 12.774 12.774 0 0 1 131.996 8.811 Q 132.608 8.971 133.275 9.201 A 21.935 21.935 0 0 1 133.524 9.288 L 132.696 11.628 A 17.367 17.367 0 0 0 131.605 11.302 A 12.849 12.849 0 0 0 130.599 11.079 A 12.334 12.334 0 0 0 129.796 10.962 Q 129.397 10.918 129.042 10.91 A 6.98 6.98 0 0 0 128.88 10.908 Q 127.661 10.908 126.85 11.463 A 2.807 2.807 0 0 0 126.819 11.484 A 1.864 1.864 0 0 0 126.02 12.84 A 2.726 2.726 0 0 0 126 13.176 A 2.38 2.38 0 0 0 126.155 14.047 A 2.174 2.174 0 0 0 126.63 14.778 A 5.264 5.264 0 0 0 127.401 15.426 A 7.216 7.216 0 0 0 128.25 15.93 A 81.002 81.002 0 0 0 129.272 16.441 A 95.043 95.043 0 0 0 130.356 16.965 Q 131.472 17.496 132.462 18.198 Q 133.452 18.9 134.082 19.935 Q 134.712 20.97 134.712 22.536 Q 134.712 23.904 133.866 25.065 A 6.184 6.184 0 0 1 131.904 26.8 A 7.26 7.26 0 0 1 131.652 26.937 Q 130.284 27.648 128.7 27.648 A 17.555 17.555 0 0 1 126.922 27.554 A 21.722 21.722 0 0 1 125.775 27.405 Q 124.644 27.228 123.223 26.639 A 20.397 20.397 0 0 1 122.112 26.136 Z M 29.808 27.288 L 26.532 27.288 L 26.532 0 L 29.808 0 L 29.808 27.288 Z M 38.952 27.288 L 35.676 27.288 L 35.676 0 L 38.952 0 L 38.952 27.288 Z M 113.076 27.288 L 109.872 27.288 L 109.872 14.976 Q 109.872 13.32 109.737 11.628 A 23.851 23.851 0 0 0 109.586 10.23 Q 109.498 9.596 109.379 9.039 A 13.334 13.334 0 0 0 109.296 8.676 L 111.78 8.676 A 3.7 3.7 0 0 1 112.37 9.464 A 3.235 3.235 0 0 1 112.599 9.981 A 10.229 10.229 0 0 1 112.847 10.829 A 12.948 12.948 0 0 1 113.004 11.556 L 113.004 12.204 L 113.292 11.556 Q 113.994 10.17 115.308 9.297 Q 116.622 8.424 118.08 8.424 A 5.127 5.127 0 0 1 118.899 8.492 A 5.612 5.612 0 0 1 118.926 8.496 A 7.068 7.068 0 0 1 119.473 8.61 A 8.799 8.799 0 0 1 119.844 8.712 L 119.412 11.52 Q 118.854 11.376 118.431 11.34 Q 118.067 11.309 117.777 11.305 A 6.215 6.215 0 0 0 117.684 11.304 A 4.199 4.199 0 0 0 115.856 11.732 A 5.13 5.13 0 0 0 115.506 11.916 A 4.051 4.051 0 0 0 114.354 12.927 A 5.66 5.66 0 0 0 113.76 13.86 A 5.517 5.517 0 0 0 113.317 15.079 Q 113.17 15.683 113.113 16.395 A 11.928 11.928 0 0 0 113.076 17.352 L 113.076 27.288 Z M 75.348 27.648 Q 72.936 27.648 70.965 26.532 Q 68.994 25.416 67.833 23.256 Q 66.742 21.226 66.676 18.337 A 16.434 16.434 0 0 1 66.672 17.964 A 13.742 13.742 0 0 1 66.815 15.93 Q 66.982 14.818 67.342 13.874 A 8.352 8.352 0 0 1 67.419 13.68 A 9.412 9.412 0 0 1 68.403 11.857 A 7.742 7.742 0 0 1 69.417 10.674 Q 70.668 9.486 72.216 8.901 Q 73.764 8.316 75.348 8.316 A 9.825 9.825 0 0 1 77.64 8.571 A 7.47 7.47 0 0 1 80.046 9.603 Q 81.99 10.89 83.007 13.077 A 10.955 10.955 0 0 1 83.96 16.646 A 13.392 13.392 0 0 1 84.024 17.964 A 13.466 13.466 0 0 1 83.861 20.106 A 10.078 10.078 0 0 1 83.331 22.113 A 9.48 9.48 0 0 1 82.343 24.035 A 7.996 7.996 0 0 1 81.432 25.155 Q 80.226 26.388 78.66 27.018 Q 77.094 27.648 75.348 27.648 Z M 88.164 21.852 L 88.164 8.676 L 91.548 8.676 L 91.548 22.212 A 4.783 4.783 0 0 0 91.623 23.081 Q 91.718 23.597 91.935 24.011 A 2.75 2.75 0 0 0 92.079 24.255 A 1.728 1.728 0 0 0 93.277 25.018 A 2.713 2.713 0 0 0 93.744 25.056 A 3.487 3.487 0 0 0 94.088 25.04 Q 94.254 25.024 94.398 24.99 A 1.918 1.918 0 0 0 94.491 24.966 A 8.724 8.724 0 0 1 94.659 24.92 Q 94.928 24.849 95.292 24.768 A 5.071 5.071 0 0 1 95.987 24.651 Q 96.647 24.589 97.232 24.729 A 3.393 3.393 0 0 1 97.245 24.732 A 3.068 3.068 0 0 1 98.331 25.245 A 4.161 4.161 0 0 1 98.892 25.74 A 23.949 23.949 0 0 1 97.758 26.376 Q 96.612 26.975 95.729 27.243 A 6.977 6.977 0 0 1 95.67 27.261 A 11.376 11.376 0 0 1 94.733 27.497 Q 94.269 27.591 93.858 27.627 A 5.529 5.529 0 0 1 93.384 27.648 Q 91.962 27.648 90.774 27.126 A 3.889 3.889 0 0 1 89.146 25.773 A 5.002 5.002 0 0 1 88.875 25.344 A 4.737 4.737 0 0 1 88.442 24.262 Q 88.164 23.247 88.164 21.852 Z M 103.788 27.288 L 101.268 27.288 A 6.503 6.503 0 0 1 100.674 26.516 Q 100.296 25.936 100.134 25.362 A 7.255 7.255 0 0 1 99.873 23.729 A 8.367 8.367 0 0 1 99.864 23.328 L 99.864 8.676 L 103.212 8.676 L 103.212 22.752 A 17.782 17.782 0 0 0 103.26 24.029 A 21.992 21.992 0 0 0 103.338 24.876 Q 103.464 26.01 103.788 27.288 Z M 75.348 25.056 A 5.155 5.155 0 0 0 76.666 24.896 A 3.891 3.891 0 0 0 78.228 24.084 A 5.453 5.453 0 0 0 79.578 22.312 A 6.95 6.95 0 0 0 79.911 21.501 A 10.285 10.285 0 0 0 80.406 19.137 A 12.548 12.548 0 0 0 80.46 17.964 Q 80.46 16.124 80.046 14.777 A 6.585 6.585 0 0 0 79.749 13.986 Q 79.054 12.456 77.931 11.7 A 4.162 4.162 0 0 0 77.877 11.664 Q 76.716 10.908 75.348 10.908 Q 73.98 10.908 72.819 11.664 A 4.596 4.596 0 0 0 71.627 12.809 Q 71.259 13.309 70.966 13.945 A 7.884 7.884 0 0 0 70.947 13.986 A 7.189 7.189 0 0 0 70.474 15.458 Q 70.236 16.57 70.236 17.964 A 12.054 12.054 0 0 0 70.419 20.13 Q 70.643 21.352 71.138 22.34 A 6.718 6.718 0 0 0 71.568 23.076 A 4.469 4.469 0 0 0 73.004 24.464 Q 73.882 24.981 75.013 25.046 A 5.778 5.778 0 0 0 75.348 25.056 Z" vector-effect="non-scaling-stroke"/></g></svg>